<svg class="icon" viewBox="0 0 1026 1024" xmlns="http://www.w3.org/2000/svg" width="64.125" height="64"><defs/><path d="M561.043 549.968c0 24.522-20.962 44.693-47.066 44.693-26.103 0-47.065-20.171-47.065-44.693V162.371c0-24.521 20.962-44.692 47.065-44.692 26.104 0 47.066 20.17 47.066 44.692v387.597z" fill="#fff"/><path d="M118.865 532.962c0-133.682 74.356-251.543 185.889-317.197 21.753-13.052 50.23-7.12 64.863 14.238 13.052 20.17 7.515 47.065-12.26 60.117-.792.395-1.583 1.186-2.374 1.582-85.43 50.23-141.591 139.219-141.591 241.26.395 157.412 134.472 284.765 300.585 285.16 166.113-.395 300.19-127.748 300.586-285.16 0-104.414-59.326-195.381-147.524-245.215-21.358-11.47-29.268-37.573-17.798-58.93l1.186-2.374c13.448-21.357 42.32-28.08 64.863-15.82 115.884 64.863 194.195 184.702 194.195 321.943 0 206.85-176.792 374.941-395.112 374.941-218.716.396-395.508-167.3-395.508-374.545" fill="#fff"/></svg>